<mxfile host="65bd71144e">
    <diagram id="5QXX_D9CV1pZZcbMuB7j" name="Page-1">
        <mxGraphModel dx="754" dy="760" grid="1" gridSize="10" guides="1" tooltips="1" connect="1" arrows="1" fold="1" page="1" pageScale="1" pageWidth="850" pageHeight="1100" math="0" shadow="0">
            <root>
                <mxCell id="0"/>
                <mxCell id="1" parent="0"/>
                <mxCell id="4" style="edgeStyle=none;html=1;exitX=0.5;exitY=0;exitDx=0;exitDy=0;entryX=0.5;entryY=1;entryDx=0;entryDy=0;" parent="1" source="2" target="3" edge="1">
                    <mxGeometry relative="1" as="geometry"/>
                </mxCell>
                <mxCell id="2" value="&lt;div style=&quot;background-color: rgb(30, 30, 30); line-height: 19px;&quot;&gt;&lt;div style=&quot;color: rgb(212, 212, 212); font-family: &amp;quot;Droid Sans Mono&amp;quot;, &amp;quot;monospace&amp;quot;, monospace; font-size: 14px; font-weight: normal;&quot;&gt;&lt;span style=&quot;color: #4ec9b0;&quot;&gt;rf_dev_t&lt;/span&gt;&lt;span style=&quot;color: #d4d4d4;&quot;&gt; &lt;/span&gt;&lt;span style=&quot;color: #9cdcfe;&quot;&gt;srsran_rf_dev_uhd = {..&lt;/span&gt;&lt;span style=&quot;color: rgb(220, 220, 170);&quot;&gt;rf_uhd_recv_with_time_multi..&lt;/span&gt;&lt;span style=&quot;color: rgb(156, 220, 254);&quot;&gt;}&lt;/span&gt;&lt;/div&gt;&lt;div style=&quot;&quot;&gt;&lt;font face=&quot;Droid Sans Mono, monospace, monospace&quot; color=&quot;#9cdcfe&quot;&gt;&lt;span style=&quot;font-size: 14px;&quot;&gt;srsRAN/lib/src/phy/rf/rf_uhd_imp.cc&lt;/span&gt;&lt;/font&gt;&lt;br&gt;&lt;/div&gt;&lt;/div&gt;" style="rounded=0;whiteSpace=wrap;html=1;" parent="1" vertex="1">
                    <mxGeometry x="170" y="370" width="330" height="110" as="geometry"/>
                </mxCell>
                <mxCell id="6" style="edgeStyle=none;html=1;exitX=0.5;exitY=0;exitDx=0;exitDy=0;entryX=0.5;entryY=1;entryDx=0;entryDy=0;" parent="1" source="3" target="5" edge="1">
                    <mxGeometry relative="1" as="geometry"/>
                </mxCell>
                <mxCell id="3" value="&lt;div style=&quot;background-color: rgb(30, 30, 30); line-height: 19px;&quot;&gt;&lt;div style=&quot;color: rgb(212, 212, 212); font-family: &amp;quot;Droid Sans Mono&amp;quot;, &amp;quot;monospace&amp;quot;, monospace; font-size: 14px; font-weight: normal;&quot;&gt;&lt;span style=&quot;color: #569cd6;&quot;&gt;extern&lt;/span&gt;&lt;span style=&quot;color: #d4d4d4;&quot;&gt; &lt;/span&gt;&lt;span style=&quot;color: #4ec9b0;&quot;&gt;rf_dev_t&lt;/span&gt;&lt;span style=&quot;color: #d4d4d4;&quot;&gt; &lt;/span&gt;&lt;span style=&quot;color: #9cdcfe;&quot;&gt;srsran_rf_dev_uhd&lt;/span&gt;&lt;span style=&quot;color: #d4d4d4;&quot;&gt;;&lt;/span&gt;&lt;/div&gt;&lt;div style=&quot;&quot;&gt;&lt;font face=&quot;Droid Sans Mono, monospace, monospace&quot; color=&quot;#d4d4d4&quot;&gt;&lt;span style=&quot;font-size: 14px;&quot;&gt;srsRAN/lib/src/phy/rf/rf_uhd_imp.h&lt;/span&gt;&lt;/font&gt;&lt;br&gt;&lt;/div&gt;&lt;/div&gt;" style="rounded=0;whiteSpace=wrap;html=1;" parent="1" vertex="1">
                    <mxGeometry x="150" y="230" width="370" height="60" as="geometry"/>
                </mxCell>
                <mxCell id="8" style="edgeStyle=none;html=1;exitX=1;exitY=0.5;exitDx=0;exitDy=0;entryX=0;entryY=0.5;entryDx=0;entryDy=0;" parent="1" source="5" target="7" edge="1">
                    <mxGeometry relative="1" as="geometry"/>
                </mxCell>
                <mxCell id="5" value="&lt;div style=&quot;background-color: rgb(30, 30, 30); line-height: 19px;&quot;&gt;&lt;div style=&quot;color: rgb(212, 212, 212); font-family: &amp;quot;Droid Sans Mono&amp;quot;, &amp;quot;monospace&amp;quot;, monospace; font-size: 14px; font-weight: normal;&quot;&gt;&lt;span style=&quot;color: #569cd6;&quot;&gt;typedef&lt;/span&gt;&lt;span style=&quot;color: #d4d4d4;&quot;&gt; &lt;/span&gt;&lt;span style=&quot;color: #569cd6;&quot;&gt;struct&lt;/span&gt;&lt;span style=&quot;color: #d4d4d4;&quot;&gt; {...&lt;/span&gt;&lt;span style=&quot;&quot;&gt;} &lt;/span&gt;&lt;span style=&quot;color: rgb(78, 201, 176);&quot;&gt;rf_dev_t&lt;/span&gt;&lt;span style=&quot;&quot;&gt;;&lt;/span&gt;&lt;/div&gt;&lt;div style=&quot;&quot;&gt;&lt;font face=&quot;Droid Sans Mono, monospace, monospace&quot; color=&quot;#d4d4d4&quot;&gt;&lt;span style=&quot;font-size: 14px;&quot;&gt;srsRAN/lib/include/srsran/phy/rf/rf.h&lt;/span&gt;&lt;/font&gt;&lt;br&gt;&lt;/div&gt;&lt;/div&gt;" style="rounded=0;whiteSpace=wrap;html=1;" parent="1" vertex="1">
                    <mxGeometry x="280" y="100" width="330" height="70" as="geometry"/>
                </mxCell>
                <mxCell id="10" style="edgeStyle=none;html=1;exitX=0.5;exitY=1;exitDx=0;exitDy=0;entryX=0.5;entryY=0;entryDx=0;entryDy=0;" parent="1" source="7" target="9" edge="1">
                    <mxGeometry relative="1" as="geometry"/>
                </mxCell>
                <mxCell id="7" value="&lt;div style=&quot;font-family: &amp;quot;Droid Sans Mono&amp;quot;, &amp;quot;monospace&amp;quot;, monospace; font-size: 14px; background-color: rgb(30, 30, 30); color: rgb(212, 212, 212);&quot;&gt;&lt;span style=&quot;color: rgb(86, 156, 214);&quot;&gt;typedef&lt;/span&gt;&amp;nbsp;&lt;span style=&quot;color: rgb(86, 156, 214);&quot;&gt;struct&lt;/span&gt;&amp;nbsp;{&lt;/div&gt;&lt;div style=&quot;font-family: &amp;quot;Droid Sans Mono&amp;quot;, &amp;quot;monospace&amp;quot;, monospace; font-size: 14px; background-color: rgb(30, 30, 30);&quot;&gt;&lt;font color=&quot;#569cd6&quot;&gt;...&lt;/font&gt;&lt;/div&gt;&lt;div style=&quot;font-family: &amp;quot;Droid Sans Mono&amp;quot;, &amp;quot;monospace&amp;quot;, monospace; font-size: 14px; background-color: rgb(30, 30, 30); color: rgb(212, 212, 212);&quot;&gt;&lt;span style=&quot;color: rgb(78, 201, 176);&quot;&gt;rf_dev_t&lt;/span&gt;*&amp;nbsp;&lt;span style=&quot;color: rgb(156, 220, 254);&quot;&gt;rf_api&lt;/span&gt;;&lt;/div&gt;&lt;div style=&quot;font-family: &amp;quot;Droid Sans Mono&amp;quot;, &amp;quot;monospace&amp;quot;, monospace; font-size: 14px; background-color: rgb(30, 30, 30); color: rgb(212, 212, 212);&quot;&gt;}&amp;nbsp;&lt;span style=&quot;color: rgb(78, 201, 176);&quot;&gt;srsran_rf_plugin_t&lt;/span&gt;;&lt;/div&gt;&lt;div style=&quot;font-family: &amp;quot;Droid Sans Mono&amp;quot;, &amp;quot;monospace&amp;quot;, monospace; font-size: 14px; background-color: rgb(30, 30, 30); color: rgb(212, 212, 212);&quot;&gt;&lt;span style=&quot;font-family: &amp;quot;Droid Sans Mono&amp;quot;, monospace, monospace;&quot;&gt;srsRAN/lib/include/srsran/phy/rf/rf.h&lt;/span&gt;&lt;br&gt;&lt;/div&gt;" style="rounded=0;whiteSpace=wrap;html=1;" parent="1" vertex="1">
                    <mxGeometry x="670" y="130" width="320" height="110" as="geometry"/>
                </mxCell>
                <mxCell id="12" style="edgeStyle=none;html=1;exitX=0.5;exitY=1;exitDx=0;exitDy=0;entryX=0.5;entryY=0;entryDx=0;entryDy=0;" edge="1" parent="1" source="9" target="11">
                    <mxGeometry relative="1" as="geometry"/>
                </mxCell>
                <mxCell id="9" value="&lt;div style=&quot;background-color: rgb(30, 30, 30); line-height: 19px;&quot;&gt;&lt;div style=&quot;font-family: &amp;quot;Droid Sans Mono&amp;quot;, &amp;quot;monospace&amp;quot;, monospace; font-size: 14px;&quot;&gt;&lt;span style=&quot;color: rgb(86, 156, 214);&quot;&gt;int&lt;/span&gt; &lt;span style=&quot;color: rgb(220, 220, 170);&quot;&gt;srsran_rf_open_devname&lt;/span&gt;&lt;font color=&quot;#d4d4d4&quot;&gt;(&lt;/font&gt;&lt;span style=&quot;color: rgb(78, 201, 176);&quot;&gt;srsran_rf_t&lt;/span&gt;&lt;font color=&quot;#d4d4d4&quot;&gt;* &lt;/font&gt;&lt;span style=&quot;color: rgb(156, 220, 254);&quot;&gt;rf&lt;/span&gt;&lt;font color=&quot;#d4d4d4&quot;&gt;, &lt;/font&gt;&lt;font color=&quot;#569cd6&quot;&gt;...&lt;/font&gt;&lt;font color=&quot;#d4d4d4&quot;&gt;)&lt;/font&gt;&lt;/div&gt;&lt;div style=&quot;font-family: &amp;quot;Droid Sans Mono&amp;quot;, &amp;quot;monospace&amp;quot;, monospace; font-size: 14px; color: rgb(212, 212, 212);&quot;&gt;{...&lt;/div&gt;&lt;div style=&quot;font-family: &amp;quot;Droid Sans Mono&amp;quot;, &amp;quot;monospace&amp;quot;, monospace; font-size: 14px; color: rgb(212, 212, 212);&quot;&gt;&lt;span style=&quot;color: rgb(156, 220, 254);&quot;&gt;rf&lt;/span&gt;&lt;span style=&quot;&quot;&gt;-&amp;gt;&lt;/span&gt;&lt;span style=&quot;color: rgb(156, 220, 254);&quot;&gt;dev&lt;/span&gt;&lt;span style=&quot;&quot;&gt; = &lt;/span&gt;&lt;span style=&quot;color: rgb(156, 220, 254);&quot;&gt;rf_plugins&lt;/span&gt;&lt;span style=&quot;&quot;&gt;[&lt;/span&gt;&lt;span style=&quot;color: rgb(156, 220, 254);&quot;&gt;i&lt;/span&gt;&lt;span style=&quot;&quot;&gt;]-&amp;gt;&lt;/span&gt;&lt;span style=&quot;color: rgb(156, 220, 254);&quot;&gt;rf_api&lt;/span&gt;&lt;span style=&quot;&quot;&gt;;&lt;/span&gt;&lt;/div&gt;&lt;div style=&quot;font-family: &amp;quot;Droid Sans Mono&amp;quot;, &amp;quot;monospace&amp;quot;, monospace; font-size: 14px; color: rgb(212, 212, 212);&quot;&gt;&lt;span style=&quot;&quot;&gt;...&lt;/span&gt;}&lt;/div&gt;&lt;div style=&quot;&quot;&gt;&lt;font face=&quot;Droid Sans Mono, monospace, monospace&quot; color=&quot;#d4d4d4&quot;&gt;&lt;span style=&quot;font-size: 14px;&quot;&gt;srsRAN/lib/src/phy/rf/rf_imp.c&lt;/span&gt;&lt;/font&gt;&lt;br&gt;&lt;/div&gt;&lt;/div&gt;" style="rounded=0;whiteSpace=wrap;html=1;" parent="1" vertex="1">
                    <mxGeometry x="700" y="300" width="410" height="110" as="geometry"/>
                </mxCell>
                <mxCell id="14" style="edgeStyle=none;html=1;exitX=0.5;exitY=1;exitDx=0;exitDy=0;entryX=0.5;entryY=0;entryDx=0;entryDy=0;" edge="1" parent="1" source="11" target="13">
                    <mxGeometry relative="1" as="geometry"/>
                </mxCell>
                <mxCell id="11" value="&lt;div style=&quot;background-color: rgb(30, 30, 30); line-height: 19px;&quot;&gt;&lt;div style=&quot;color: rgb(212, 212, 212); font-family: &amp;quot;Droid Sans Mono&amp;quot;, &amp;quot;monospace&amp;quot;, monospace; font-size: 14px;&quot;&gt;&lt;span style=&quot;color: #569cd6;&quot;&gt;bool&lt;/span&gt; &lt;span style=&quot;color: #4ec9b0;&quot;&gt;radio&lt;/span&gt;::&lt;span style=&quot;color: #dcdcaa;&quot;&gt;open_dev&lt;/span&gt;(&lt;span style=&quot;color: #569cd6;&quot;&gt;const&lt;/span&gt; &lt;span style=&quot;color: #4ec9b0;&quot;&gt;uint32_t&lt;/span&gt;&lt;span style=&quot;color: #569cd6;&quot;&gt;&amp;amp;&lt;/span&gt; &lt;span style=&quot;color: #9cdcfe;&quot;&gt;device_idx&lt;/span&gt;, &lt;span style=&quot;color: #569cd6;&quot;&gt;const&lt;/span&gt; &lt;span style=&quot;color: #4ec9b0;&quot;&gt;std&lt;/span&gt;::&lt;span style=&quot;color: #4ec9b0;&quot;&gt;string&lt;/span&gt;&lt;span style=&quot;color: #569cd6;&quot;&gt;&amp;amp;&lt;/span&gt; &lt;span style=&quot;color: #9cdcfe;&quot;&gt;device_name&lt;/span&gt;, &lt;span style=&quot;color: #569cd6;&quot;&gt;const&lt;/span&gt; &lt;span style=&quot;color: #4ec9b0;&quot;&gt;std&lt;/span&gt;::&lt;span style=&quot;color: #4ec9b0;&quot;&gt;string&lt;/span&gt;&lt;span style=&quot;color: #569cd6;&quot;&gt;&amp;amp;&lt;/span&gt; &lt;span style=&quot;color: #9cdcfe;&quot;&gt;devive_args&lt;/span&gt;)&lt;/div&gt;&lt;div style=&quot;color: rgb(212, 212, 212); font-family: &amp;quot;Droid Sans Mono&amp;quot;, &amp;quot;monospace&amp;quot;, monospace; font-size: 14px;&quot;&gt;{...&lt;/div&gt;&lt;div style=&quot;color: rgb(212, 212, 212); font-family: &amp;quot;Droid Sans Mono&amp;quot;, &amp;quot;monospace&amp;quot;, monospace; font-size: 14px;&quot;&gt;&lt;span style=&quot;color: rgb(220, 220, 170);&quot;&gt;srsran_rf_open_devname&lt;/span&gt;&lt;span style=&quot;&quot;&gt;(&lt;/span&gt;&lt;span style=&quot;color: rgb(156, 220, 254);&quot;&gt;rf_device&lt;/span&gt;&lt;span style=&quot;&quot;&gt;, &lt;/span&gt;&lt;span style=&quot;color: rgb(156, 220, 254);&quot;&gt;dev_name&lt;/span&gt;&lt;span style=&quot;&quot;&gt;, &lt;/span&gt;&lt;span style=&quot;color: rgb(156, 220, 254);&quot;&gt;dev_args&lt;/span&gt;&lt;span style=&quot;&quot;&gt;, &lt;/span&gt;&lt;span style=&quot;color: rgb(156, 220, 254);&quot;&gt;nof_channels_x_dev&lt;/span&gt;&lt;span style=&quot;&quot;&gt;)&lt;/span&gt;&lt;/div&gt;&lt;div style=&quot;color: rgb(212, 212, 212); font-family: &amp;quot;Droid Sans Mono&amp;quot;, &amp;quot;monospace&amp;quot;, monospace; font-size: 14px;&quot;&gt;...}&lt;/div&gt;&lt;div style=&quot;&quot;&gt;&lt;font face=&quot;Droid Sans Mono, monospace, monospace&quot; color=&quot;#d4d4d4&quot;&gt;&lt;span style=&quot;font-size: 14px;&quot;&gt;srsRAN/lib/src/radio/radio.cc&lt;/span&gt;&lt;/font&gt;&lt;br&gt;&lt;/div&gt;&lt;/div&gt;" style="rounded=0;whiteSpace=wrap;html=1;" vertex="1" parent="1">
                    <mxGeometry x="690" y="470" width="350" height="190" as="geometry"/>
                </mxCell>
                <mxCell id="13" value="&lt;div style=&quot;background-color: rgb(30, 30, 30); line-height: 19px;&quot;&gt;&lt;div style=&quot;color: rgb(212, 212, 212); font-family: &amp;quot;Droid Sans Mono&amp;quot;, &amp;quot;monospace&amp;quot;, monospace; font-size: 14px;&quot;&gt;&lt;span style=&quot;color: #569cd6;&quot;&gt;int&lt;/span&gt; &lt;span style=&quot;color: #4ec9b0;&quot;&gt;radio&lt;/span&gt;::&lt;span style=&quot;color: #dcdcaa;&quot;&gt;init&lt;/span&gt;(&lt;span style=&quot;color: #569cd6;&quot;&gt;const&lt;/span&gt; &lt;span style=&quot;color: #4ec9b0;&quot;&gt;rf_args_t&lt;/span&gt;&lt;span style=&quot;color: #569cd6;&quot;&gt;&amp;amp;&lt;/span&gt; &lt;span style=&quot;color: #9cdcfe;&quot;&gt;args&lt;/span&gt;, &lt;span style=&quot;color: #4ec9b0;&quot;&gt;phy_interface_radio&lt;/span&gt;&lt;span style=&quot;color: #569cd6;&quot;&gt;*&lt;/span&gt; &lt;span style=&quot;color: #9cdcfe;&quot;&gt;phy_&lt;/span&gt;)&lt;/div&gt;&lt;div style=&quot;color: rgb(212, 212, 212); font-family: &amp;quot;Droid Sans Mono&amp;quot;, &amp;quot;monospace&amp;quot;, monospace; font-size: 14px;&quot;&gt;{}&lt;/div&gt;&lt;div style=&quot;&quot;&gt;&lt;font face=&quot;Droid Sans Mono, monospace, monospace&quot; color=&quot;#d4d4d4&quot;&gt;&lt;span style=&quot;font-size: 14px;&quot;&gt;srsRAN/lib/src/radio/radio.cc&lt;/span&gt;&lt;/font&gt;&lt;br&gt;&lt;/div&gt;&lt;/div&gt;" style="rounded=0;whiteSpace=wrap;html=1;" vertex="1" parent="1">
                    <mxGeometry x="690" y="710" width="300" height="110" as="geometry"/>
                </mxCell>
            </root>
        </mxGraphModel>
    </diagram>
</mxfile>